<svg xmlns="http://www.w3.org/2000/svg" style="display:none" aria-hidden="true">

  <!-- FEATURES -->
  <symbol id="icon-antenna" viewBox="0 0 64 64">
    <path d="M32 12L20 34h24L32 12zM32 52a4 4 0 100-8 4 4 0 000 8z"/>
  </symbol>

  <symbol id="icon-clock" viewBox="0 0 64 64">
    <circle cx="32" cy="32" r="28"/>
    <path d="M32 12v20l14 8"/>
  </symbol>

  <symbol id="icon-diagram" viewBox="0 0 64 64">
    <rect x="8" y="32" width="12" height="20"/>
    <rect x="26" y="20" width="12" height="32"/>
    <rect x="44" y="10" width="12" height="42"/>
  </symbol>

  <symbol id="icon-astronaut" viewBox="0 0 64 64">
    <circle cx="32" cy="22" r="12"/>
    <path d="M20 40h24l4 14H16l4-14z"/>
  </symbol>

  <!-- SOCIAL -->
  <symbol id="icon-facebook" viewBox="0 0 24 24">
    <path d="M14 8h4V4h-4c-2.2 0-4 1.8-4 4v4H8v4h2v4h4v-4h3l1-4h-4V8z"/>
  </symbol>

  <symbol id="icon-instagram" viewBox="0 0 24 24">
    <circle cx="12" cy="12" r="3.2"/>
    <path d="M7 2h10a5 5 0 015 5v10a5 5 0 01-5 5H7a5 5 0 01-5-5V7a5 5 0 015-5zm11 4h2"/>
  </symbol>

  <symbol id="icon-twitter" viewBox="0 0 24 24">
    <path d="M23 3a10.9 10.9 0 01-3.14 1.53A4.48 4.48 0 0012 8v1A10.66 10.66 0 013 4s-4 9 5 13a11.64 11.64 0 01-7 2"/>
  </symbol>

  <symbol id="icon-linkedin" viewBox="0 0 24 24">
    <path d="M6 9h4v12H6zm2-7a2 2 0 110 4 2 2 0 010-4zm6 7h4v2c.93-1.2 2-2 4-2v12h-4V13c0-4-4-3.7-4 0v8h-4V9z"/>
  </symbol>

  <!-- FORM / MODAL -->
  <symbol id="icon-person" viewBox="0 0 24 24">
    <circle cx="12" cy="8" r="4"/>
    <path d="M4 20a8 8 0 0116 0"/>
  </symbol>

  <symbol id="icon-phone" viewBox="0 0 24 24">
    <path d="M6.6 10.8a13 13 0 006.6 6.6l3-3a1 1 0 011 .2c1 .9 2.1 1.7 3.3 2.4a1 1 0 01.5.9v3a1 1 0 01-1 1A18 18 0 013 6a1 1 0 011-1h3a1 1 0 01.9.5c.7 1.2 1.5 2.3 2.4 3.3a1 1 0 01.2 1l-3 3z"/>
  </symbol>

  <symbol id="icon-email" viewBox="0 0 24 24">
    <path d="M4 4h16a2 2 0 012 2v1l-10 6L2 7V6a2 2 0 012-2zm0 6l10 6 10-6v8a2 2 0 01-2 2H4a2 2 0 01-2-2v-8z"/>
  </symbol>

  <symbol id="icon-close" viewBox="0 0 24 24">
    <path d="M18 6L6 18M6 6l12 12" stroke-width="2"/>
  </symbol>

  <symbol id="icon-check" viewBox="0 0 16 16">
    <path d="M2 8l4 4L14 4" stroke-width="2"/>
  </symbol>

  <symbol id="icon-send" viewBox="0 0 24 24">
    <path d="M2 21l21-9L2 3v7l15 2-15 2v7z"/>
  </symbol>

</svg>